<svg xmlns="http://www.w3.org/2000/svg" viewBox="0 0 200 200" width="200" height="200">
  <title>BlueTide - conceito Farol-Sol</title>
  <rect width="200" height="200" fill="#F5F9FA"/>
  <g stroke-width="9" stroke-linecap="round">
    <line x1="70" y1="78" x2="46" y2="78" stroke="#1E8A5F"/>
    <line x1="74" y1="63" x2="53.2" y2="51" stroke="#1E8A5F"/>
    <line x1="85" y1="52" x2="73" y2="31.2" stroke="#C97A1E"/>
    <line x1="100" y1="48" x2="100" y2="24" stroke="#C97A1E"/>
    <line x1="115" y1="52" x2="127" y2="31.2" stroke="#C97A1E"/>
    <line x1="126" y1="63" x2="146.8" y2="51" stroke="#B23A2E"/>
    <line x1="130" y1="78" x2="154" y2="78" stroke="#B23A2E"/>
  </g>
  <circle cx="100" cy="78" r="30" fill="#BFE3EA" stroke="#0B3C5D" stroke-width="5"/>
  <path d="M20,150 C46,130 66,130 92,150 C118,170 138,170 164,150 L180,150 L180,196 L20,196 Z"
        fill="#0B3C5D"/>
  <path d="M20,164 C46,148 66,148 92,164 C118,180 138,180 164,164 L180,164 L180,178 L20,178 Z"
        fill="#1C7C93"/>
</svg>
